<svg width="96" height="96" viewBox="0 0 96 96" fill="none" xmlns="http://www.w3.org/2000/svg">
	<rect width="96" height="96" rx="28" fill="url(#bg)"/>
	<rect x="10" y="10" width="76" height="76" rx="22" fill="url(#panel)" fill-opacity="0.98"/>
	<path d="M28 58.5C28 57.1193 29.1193 56 30.5 56H65.5C66.8807 56 68 57.1193 68 58.5C68 59.8807 66.8807 61 65.5 61H30.5C29.1193 61 28 59.8807 28 58.5Z" fill="#0F766E"/>
	<path d="M31 48.5C31 47.1193 32.1193 46 33.5 46H54.5C55.8807 46 57 47.1193 57 48.5C57 49.8807 55.8807 51 54.5 51H33.5C32.1193 51 31 49.8807 31 48.5Z" fill="#14B8A6"/>
	<path d="M31 38.5C31 37.1193 32.1193 36 33.5 36H46.5C47.8807 36 49 37.1193 49 38.5C49 39.8807 47.8807 41 46.5 41H33.5C32.1193 41 31 39.8807 31 38.5Z" fill="#5EEAD4"/>
	<circle cx="63" cy="35" r="9" fill="#F0FDFA"/>
	<path d="M63 29.5V40.5" stroke="#0F766E" stroke-width="3" stroke-linecap="round"/>
	<path d="M57.5 35H68.5" stroke="#0F766E" stroke-width="3" stroke-linecap="round"/>
	<defs>
		<linearGradient id="bg" x1="10" y1="6" x2="84" y2="90" gradientUnits="userSpaceOnUse">
			<stop stop-color="#0F766E"/>
			<stop offset="1" stop-color="#14B8A6"/>
		</linearGradient>
		<linearGradient id="panel" x1="19" y1="18" x2="74" y2="78" gradientUnits="userSpaceOnUse">
			<stop stop-color="#ECFEFF"/>
			<stop offset="1" stop-color="#CCFBF1"/>
		</linearGradient>
	</defs>
</svg>
